<svg xmlns="http://www.w3.org/2000/svg" xmlns:xlink="http://www.w3.org/1999/xlink" viewBox="0,0,256,256" width="48px" height="48px"><g fill-opacity="0.74118" fill="#ffffff" fill-rule="nonzero" stroke="none" stroke-width="1" stroke-linecap="butt" stroke-linejoin="miter" stroke-miterlimit="10" stroke-dasharray="" stroke-dashoffset="0" font-family="none" font-weight="none" font-size="none" text-anchor="none" style="mix-blend-mode: normal"><g transform="scale(4,4)"><path d="M40,10c-1.104,0 -2,0.896 -2,2c0,1.104 0.896,2 2,2h7.17188l-16.58594,16.58594c-0.781,0.781 -0.781,2.04713 0,2.82812c0.391,0.391 0.90206,0.58594 1.41406,0.58594c0.512,0 1.02306,-0.19494 1.41406,-0.58594l16.58594,-16.58594v7.17188c0,1.104 0.896,2 2,2c1.104,0 2,-0.896 2,-2v-12c0,-1.104 -0.896,-2 -2,-2zM18,12c-3.309,0 -6,2.691 -6,6v28c0,3.309 2.691,6 6,6h28c3.309,0 6,-2.691 6,-6v-12c0,-1.104 -0.896,-2 -2,-2c-1.104,0 -2,0.896 -2,2v12c0,1.103 -0.897,2 -2,2h-28c-1.103,0 -2,-0.897 -2,-2v-28c0,-1.103 0.897,-2 2,-2h12c1.104,0 2,-0.896 2,-2c0,-1.104 -0.896,-2 -2,-2z"></path></g></g></svg>