<svg xmlns="http://www.w3.org/2000/svg" xmlns:xlink="http://www.w3.org/1999/xlink" viewBox="0,0,256,256" width="50px" height="50px"><g fill-opacity="0.6" fill="#000000" fill-rule="nonzero" stroke="none" stroke-width="1" stroke-linecap="butt" stroke-linejoin="miter" stroke-miterlimit="10" stroke-dasharray="" stroke-dashoffset="0" font-family="none" font-weight="none" font-size="none" text-anchor="none" style="mix-blend-mode: normal"><g transform="scale(5.12,5.12)"><path d="M21.5,8c-7.443,0 -13.5,6.057 -13.5,13.5c0,7.443 6.057,13.5 13.5,13.5c3.28907,0 6.3057,-1.18398 8.65039,-3.14648c0.2849,0.2849 9.56152,9.56249 9.79297,9.79492c0.47,0.47 1.23313,0.47 1.70313,0c0.47,-0.47 0.47,-1.23313 0,-1.70313c-0.23145,-0.23243 -9.50807,-9.51002 -9.79297,-9.79492c1.9625,-2.34469 3.14648,-5.36133 3.14648,-8.65039c0,-7.443 -6.057,-13.5 -13.5,-13.5zM21.5,9c6.892,0 12.5,5.608 12.5,12.5c0,6.892 -5.608,12.5 -12.5,12.5c-6.892,0 -12.5,-5.608 -12.5,-12.5c0,-6.892 5.608,-12.5 12.5,-12.5z"></path></g></g></svg>